<svg xmlns="http://www.w3.org/2000/svg" viewBox="0 0 64 64">
  <circle cx="32" cy="32" r="30" fill="#f97316"/>
  <g id="cat">
    <polygon points="18,18 22,12 26,18" fill="#fbbf24"/>
    <polygon points="26,18 30,12 34,18" fill="#fbbf24"/>
    <circle cx="26" cy="28" r="12" fill="#fbbf24"/>
    <circle cx="22" cy="26" r="2" fill="#1f2937"/>
    <circle cx="30" cy="26" r="2" fill="#1f2937"/>
    <circle cx="26" cy="30" r="1.5" fill="#f43f5e"/>
  </g>
  <g id="dog">
    <ellipse cx="38" cy="22" rx="3" ry="5" fill="#fde68a" transform="rotate(-20 38 22)"/>
    <ellipse cx="50" cy="22" rx="3" ry="5" fill="#fde68a" transform="rotate(20 50 22)"/>
    <circle cx="44" cy="32" r="11" fill="#fde68a"/>
    <circle cx="40" cy="30" r="2" fill="#1f2937"/>
    <circle cx="48" cy="30" r="2" fill="#1f2937"/>
    <ellipse cx="44" cy="35" rx="2.5" ry="2" fill="#1f2937"/>
  </g>
  <circle cx="32" cy="50" r="3" fill="#ffffff" opacity="0.9"/>
  <circle cx="27" cy="47" r="1.5" fill="#ffffff" opacity="0.9"/>
  <circle cx="37" cy="47" r="1.5" fill="#ffffff" opacity="0.9"/>
  <circle cx="29" cy="52" r="1.5" fill="#ffffff" opacity="0.9"/>
  <circle cx="35" cy="52" r="1.5" fill="#ffffff" opacity="0.9"/>
</svg>